<?xml version="1.0" standalone="no"?>
<!DOCTYPE svg PUBLIC "-//W3C//DTD SVG 20010904//EN"
 "http://www.w3.org/TR/2001/REC-SVG-20010904/DTD/svg10.dtd">
<svg version="1.0" xmlns="http://www.w3.org/2000/svg"
 width="3264.000000pt" height="3264.000000pt" viewBox="0 0 3264.000000 3264.000000"
 preserveAspectRatio="xMidYMid meet">

<g transform="translate(0.000000,3264.000000) scale(0.100000,-0.100000)"
fill="#000000" stroke="none">
<path d="M23365 26501 c-38 -4 -82 -12 -96 -18 -14 -6 -68 -14 -120 -18 -52
-3 -114 -13 -139 -20 -25 -8 -74 -21 -110 -31 -110 -29 -152 -42 -225 -69 -38
-14 -92 -32 -120 -40 -87 -25 -156 -51 -295 -113 -169 -76 -200 -91 -200 -102
0 -4 -15 -13 -32 -20 -18 -7 -70 -35 -114 -62 -45 -26 -86 -48 -92 -48 -5 0
-33 -16 -61 -35 -28 -20 -62 -40 -75 -44 -12 -5 -71 -46 -130 -90 -59 -45
-110 -81 -114 -81 -4 -1 -25 -19 -47 -40 -22 -22 -44 -40 -49 -40 -21 0 -331
-271 -415 -363 -14 -16 -73 -77 -131 -135 -58 -59 -118 -126 -134 -149 -16
-24 -32 -43 -37 -43 -4 0 -10 -8 -13 -18 -3 -9 -20 -33 -38 -52 -18 -19 -54
-64 -80 -100 -26 -36 -53 -71 -59 -79 -34 -39 -80 -103 -93 -129 -9 -17 -20
-32 -24 -34 -9 -3 -89 -135 -137 -226 -11 -20 -22 -39 -25 -42 -10 -9 -70
-137 -70 -148 0 -6 -3 -12 -7 -14 -13 -5 -63 -114 -63 -136 0 -12 -9 -44 -20
-72 -11 -28 -20 -71 -20 -95 0 -24 -4 -47 -10 -50 -16 -10 -12 -113 5 -145 22
-43 66 -41 124 5 24 19 47 35 50 35 3 0 23 16 43 35 20 19 40 35 45 35 4 1 26
21 48 47 22 25 68 76 103 114 34 37 62 73 62 78 0 14 264 277 306 306 52 35
105 80 189 162 41 39 96 85 122 102 27 16 55 36 63 44 24 22 181 128 199 134
9 3 23 12 31 19 32 26 237 134 256 134 4 0 15 6 23 14 17 16 74 38 161 63 30
9 62 22 71 30 8 7 25 13 37 13 25 0 155 35 174 46 7 5 40 12 73 17 33 4 96 13
140 19 44 6 202 11 350 11 251 0 355 -7 480 -32 28 -5 76 -15 109 -21 32 -6
71 -17 87 -25 15 -8 36 -15 46 -15 21 0 105 -32 188 -71 33 -16 76 -35 95 -44
19 -8 46 -22 60 -30 45 -25 134 -65 146 -65 7 0 14 -4 16 -8 2 -5 41 -31 88
-57 47 -27 103 -62 125 -80 22 -17 64 -46 93 -65 28 -18 52 -37 52 -41 0 -4 8
-10 18 -13 9 -3 28 -16 42 -29 14 -12 36 -30 50 -39 27 -18 45 -34 220 -192
114 -103 226 -220 275 -286 14 -19 38 -46 54 -60 16 -15 34 -37 41 -51 14 -25
65 -91 113 -143 15 -17 42 -55 60 -85 17 -29 49 -73 70 -98 20 -24 37 -49 37
-55 0 -7 15 -34 33 -62 113 -171 231 -392 307 -576 26 -63 58 -140 70 -170 43
-103 48 -115 68 -160 11 -25 23 -63 27 -85 3 -22 12 -49 19 -60 7 -11 23 -58
35 -105 12 -47 31 -113 42 -148 10 -34 19 -78 19 -96 0 -18 6 -52 14 -74 17
-46 46 -207 46 -250 0 -15 4 -32 9 -37 17 -19 24 -153 24 -485 0 -204 -4 -362
-11 -405 -6 -38 -16 -97 -21 -130 -19 -119 -55 -270 -77 -322 -8 -17 -14 -36
-14 -43 0 -17 -49 -158 -71 -206 -10 -22 -19 -46 -19 -53 0 -13 -62 -131 -90
-171 -9 -14 -21 -35 -24 -47 -4 -13 -11 -23 -15 -23 -4 0 -13 -12 -20 -26 -16
-35 -106 -156 -158 -212 -24 -25 -43 -49 -43 -52 0 -24 -216 -236 -304 -299
-164 -118 -213 -150 -263 -177 -29 -15 -53 -31 -53 -35 0 -4 -37 -22 -82 -39
-46 -18 -87 -35 -93 -39 -5 -4 -44 -20 -85 -35 -41 -15 -88 -34 -103 -42 -16
-8 -35 -14 -44 -14 -8 0 -56 -13 -106 -29 -280 -89 -317 -98 -455 -108 -45 -3
-85 -9 -88 -14 -3 -5 -25 -9 -48 -9 -24 0 -63 -8 -87 -17 -39 -15 -96 -17
-484 -16 -387 0 -445 2 -479 16 -21 10 -64 17 -95 17 -31 0 -61 4 -66 9 -6 5
-46 11 -90 14 -157 10 -258 29 -350 67 -11 5 -63 18 -115 29 -52 11 -126 30
-165 41 -38 12 -96 28 -127 36 -32 8 -72 23 -90 34 -18 10 -85 35 -148 55 -63
20 -128 43 -145 50 -16 8 -48 21 -70 30 -22 9 -58 26 -80 37 -21 11 -71 33
-110 48 -85 35 -284 136 -306 156 -8 8 -22 14 -30 14 -17 0 -228 106 -249 125
-9 8 -31 21 -50 30 -42 19 -53 26 -152 88 -42 26 -78 47 -81 47 -15 0 -181
102 -252 155 -44 33 -92 66 -107 75 -25 14 -221 145 -243 162 -50 39 -80 61
-145 103 -41 28 -79 55 -85 61 -5 6 -33 27 -61 47 -51 36 -154 141 -154 156 0
4 18 27 40 51 22 24 40 49 40 57 0 7 3 13 8 13 4 0 21 23 37 50 17 28 45 67
62 88 18 20 33 41 33 45 0 4 16 23 35 42 19 19 40 45 46 57 15 28 81 112 92
116 4 2 16 20 26 40 11 21 31 48 45 61 14 14 26 29 26 34 0 5 20 32 43 60 24
29 73 90 107 137 35 47 75 96 88 110 14 14 49 59 80 100 30 41 78 100 106 131
76 83 106 122 106 136 0 7 5 13 10 13 6 0 14 8 17 18 4 9 26 44 50 77 81 113
150 220 177 275 15 30 31 62 36 70 31 54 90 211 90 241 0 9 7 30 15 45 20 40
21 329 1 394 -65 211 -74 232 -121 305 -33 51 -218 240 -252 258 -10 6 -33 25
-52 43 -18 18 -47 36 -65 40 -17 3 -53 18 -81 33 -75 41 -111 52 -210 63 -150
17 -257 20 -310 10 -27 -6 -88 -18 -135 -27 -47 -8 -107 -20 -134 -25 -27 -5
-59 -18 -71 -30 -12 -11 -28 -20 -37 -20 -8 0 -23 -9 -33 -20 -10 -11 -24 -20
-32 -20 -7 0 -13 -4 -13 -9 0 -5 -12 -14 -27 -20 -16 -7 -45 -27 -67 -46 -21
-19 -42 -35 -47 -35 -16 0 -169 -152 -216 -215 -25 -33 -52 -67 -60 -75 -27
-29 -73 -93 -73 -101 0 -4 -17 -25 -38 -46 -20 -21 -46 -51 -56 -68 -11 -16
-25 -34 -33 -38 -7 -4 -13 -13 -13 -20 0 -7 -21 -34 -46 -62 -24 -27 -53 -69
-64 -92 -10 -24 -23 -43 -29 -43 -5 0 -23 -21 -40 -47 -17 -27 -44 -68 -60
-92 -16 -25 -47 -59 -69 -75 -50 -39 -113 -111 -138 -156 -10 -19 -37 -57 -60
-85 -22 -27 -50 -67 -63 -87 -12 -21 -26 -38 -30 -38 -4 0 -15 -14 -25 -30 -9
-17 -29 -43 -43 -58 -14 -15 -37 -46 -53 -68 -48 -72 -82 -104 -108 -104 -19
0 -57 32 -150 123 -68 67 -141 145 -162 172 -51 68 -257 274 -341 341 -37 29
-74 62 -81 72 -7 10 -35 35 -63 57 -27 22 -84 74 -126 115 -43 42 -89 84 -104
94 -14 9 -50 38 -79 64 -30 26 -86 74 -126 107 -39 33 -86 72 -103 88 -18 16
-54 46 -82 67 -27 21 -63 52 -79 69 -17 17 -36 31 -43 31 -7 0 -13 4 -13 8 0
5 -17 18 -37 29 -21 12 -51 35 -67 52 -17 17 -34 31 -39 31 -4 0 -96 65 -202
145 -107 80 -197 145 -200 145 -5 0 -94 58 -120 78 -5 4 -32 22 -60 39 -27 18
-54 36 -60 40 -5 5 -32 23 -60 40 -27 18 -54 36 -60 40 -22 18 -73 48 -125 76
-30 15 -62 35 -71 43 -8 8 -20 14 -26 14 -5 0 -41 20 -79 45 -37 25 -74 45
-81 45 -6 0 -16 6 -20 13 -4 7 -37 28 -73 46 -36 19 -91 49 -122 67 -32 19
-84 49 -115 67 -105 61 -686 345 -802 393 -63 25 -124 52 -135 59 -12 8 -55
25 -96 38 -41 14 -97 37 -123 51 -27 15 -126 51 -220 82 -95 31 -185 62 -202
69 -16 7 -55 21 -85 30 -30 9 -77 24 -105 34 -27 10 -95 32 -150 50 -55 17
-142 44 -193 61 -52 16 -102 30 -112 30 -10 0 -33 6 -51 14 -19 7 -56 16 -84
20 -56 7 -207 41 -275 61 -25 7 -72 17 -105 20 -33 4 -85 14 -115 22 -30 8
-68 17 -85 20 -16 2 -52 10 -80 19 -27 8 -111 19 -185 24 -74 6 -171 15 -215
21 -44 5 -138 12 -210 15 -71 3 -136 10 -143 16 -39 33 -896 36 -965 4 -21
-10 -76 -17 -162 -20 -71 -2 -164 -9 -205 -15 -41 -5 -127 -15 -190 -21 -63
-6 -130 -18 -148 -26 -19 -8 -46 -14 -60 -14 -14 0 -55 -9 -91 -19 -36 -11
-88 -22 -116 -26 -27 -3 -70 -12 -95 -20 -69 -21 -160 -46 -209 -56 -56 -11
-182 -53 -235 -78 -23 -11 -88 -35 -146 -54 -129 -43 -249 -93 -271 -113 -8
-7 -22 -14 -30 -14 -14 0 -90 -33 -154 -67 -16 -9 -96 -49 -177 -90 -82 -41
-150 -79 -153 -83 -3 -5 -29 -21 -58 -35 -28 -14 -83 -46 -122 -71 -38 -24
-83 -51 -100 -59 -52 -27 -193 -121 -244 -162 -18 -16 -41 -32 -50 -37 -9 -5
-20 -14 -26 -20 -5 -6 -32 -27 -60 -46 -27 -19 -52 -38 -53 -42 -2 -4 -10 -8
-17 -8 -8 0 -18 -7 -22 -15 -5 -8 -30 -29 -56 -48 -148 -105 -761 -731 -801
-817 -3 -8 -19 -31 -34 -51 -59 -78 -88 -116 -127 -164 -22 -27 -51 -70 -64
-95 -13 -25 -31 -54 -41 -65 -26 -32 -133 -192 -157 -236 -12 -22 -26 -45 -31
-52 -5 -7 -42 -75 -81 -152 -40 -77 -75 -142 -79 -145 -10 -7 -72 -136 -72
-148 0 -6 -3 -12 -7 -14 -10 -4 -103 -191 -103 -207 0 -6 -10 -33 -23 -59 -13
-26 -39 -85 -57 -132 -18 -47 -41 -104 -51 -127 -11 -24 -19 -47 -19 -53 0 -5
-11 -38 -25 -72 -35 -91 -89 -249 -120 -353 -15 -49 -38 -124 -52 -165 -24
-75 -31 -101 -97 -370 -20 -80 -40 -161 -45 -180 -16 -60 -43 -192 -52 -260
-5 -36 -14 -92 -19 -125 -10 -59 -22 -132 -41 -250 -5 -33 -12 -89 -15 -125
-4 -36 -11 -71 -18 -79 -7 -9 -14 -115 -19 -305 -4 -160 -12 -313 -18 -341 -6
-31 -8 -137 -5 -280 3 -126 9 -468 15 -760 7 -366 13 -541 22 -565 7 -19 15
-71 20 -115 11 -118 28 -243 40 -300 6 -27 14 -77 19 -110 10 -75 27 -166 40
-225 6 -25 15 -76 19 -115 5 -38 16 -97 25 -130 8 -33 15 -71 16 -85 0 -14 13
-66 29 -115 15 -50 43 -153 61 -230 17 -77 36 -149 41 -160 4 -11 24 -72 43
-135 37 -120 70 -221 86 -255 15 -33 60 -172 60 -185 0 -12 8 -32 62 -147 15
-34 32 -83 38 -110 5 -26 24 -77 43 -113 19 -36 37 -76 41 -90 4 -14 24 -61
46 -105 21 -44 48 -105 61 -135 13 -30 28 -62 35 -70 7 -8 53 -96 104 -195 51
-99 95 -182 99 -185 3 -3 19 -30 35 -60 17 -30 36 -61 43 -68 7 -7 13 -20 13
-27 0 -7 15 -33 33 -57 18 -24 38 -54 45 -68 14 -30 29 -54 59 -97 13 -17 23
-36 23 -41 0 -4 12 -19 26 -33 14 -13 33 -37 41 -54 9 -16 32 -50 52 -74 41
-49 66 -81 134 -172 80 -106 101 -132 121 -149 31 -26 40 -35 66 -70 33 -45
340 -353 408 -410 30 -25 70 -60 90 -77 21 -18 40 -33 44 -33 4 0 15 -9 25
-19 46 -49 295 -221 408 -282 33 -18 72 -40 87 -51 14 -10 29 -18 32 -18 4 0
25 -12 49 -27 56 -36 147 -83 159 -83 5 0 46 -18 91 -39 45 -22 114 -51 152
-64 39 -14 102 -37 140 -52 39 -15 99 -33 135 -41 36 -8 79 -21 97 -29 17 -8
43 -15 58 -15 15 0 50 -7 79 -16 28 -9 65 -20 82 -25 32 -10 203 -25 429 -38
66 -4 136 -13 155 -19 49 -17 173 -15 217 3 22 9 67 15 119 15 46 0 114 4 151
10 38 5 120 14 183 19 123 11 213 25 245 39 27 13 145 42 230 57 39 7 86 20
105 28 19 8 80 27 135 42 55 15 105 31 111 36 12 10 179 74 234 91 19 6 65 25
101 44 36 19 71 34 79 34 7 0 21 6 29 14 9 8 38 21 64 30 26 9 74 29 105 45
31 16 82 41 112 56 30 14 62 30 70 35 8 5 74 41 145 81 72 39 132 75 135 78 3
4 18 12 33 19 16 7 65 36 110 66 46 29 114 70 152 91 39 21 79 45 90 54 11 10
65 46 120 82 55 35 106 72 113 81 7 10 19 18 26 18 7 0 23 12 37 26 13 14 38
33 54 41 17 9 40 26 53 38 13 13 49 40 80 62 31 21 62 43 67 49 6 6 35 27 65
46 30 20 71 51 90 68 19 18 52 44 73 57 20 14 37 29 37 33 0 3 21 22 47 40 26
19 59 45 73 57 28 26 87 71 120 93 13 8 68 60 124 115 56 55 115 110 133 123
28 20 199 182 308 292 22 22 44 40 48 40 13 0 436 429 451 458 8 15 41 52 72
82 91 88 107 155 55 226 -43 59 -72 86 -137 124 -32 19 -74 46 -94 59 -19 13
-53 26 -75 29 -38 4 -44 1 -109 -59 -38 -35 -76 -68 -85 -73 -9 -5 -46 -39
-84 -74 -37 -36 -78 -73 -92 -82 -13 -9 -45 -37 -71 -63 -25 -26 -49 -47 -52
-47 -4 0 -41 -32 -82 -70 -41 -38 -79 -70 -83 -70 -4 0 -43 -32 -85 -71 -107
-98 -100 -92 -172 -140 -36 -24 -92 -65 -125 -90 -33 -25 -75 -54 -93 -63 -19
-10 -52 -32 -75 -49 -23 -18 -65 -43 -92 -57 -28 -14 -52 -27 -55 -30 -24 -24
-317 -169 -445 -219 -60 -24 -128 -52 -150 -62 -22 -9 -55 -20 -72 -24 -18 -4
-35 -11 -38 -16 -4 -5 -17 -9 -30 -9 -13 0 -46 -8 -72 -19 -26 -10 -81 -22
-122 -26 -41 -4 -88 -13 -105 -20 -17 -7 -62 -16 -101 -20 -38 -4 -75 -12 -82
-17 -16 -12 -179 -27 -306 -28 -63 0 -110 -5 -134 -15 -50 -21 -623 -22 -674
-1 -22 9 -102 16 -232 20 -123 5 -212 12 -236 21 -21 7 -69 16 -107 20 -38 4
-75 12 -81 17 -7 6 -54 16 -104 24 -50 7 -96 18 -103 23 -17 14 -118 51 -140
51 -18 0 -44 10 -152 61 -23 10 -45 19 -50 19 -14 0 -311 152 -339 173 -5 5
-48 33 -95 62 -47 30 -100 67 -119 82 -18 15 -42 33 -52 38 -9 6 -72 63 -139
127 -67 65 -133 125 -148 134 -15 8 -38 31 -52 51 -14 19 -47 61 -75 93 -106
123 -146 176 -270 362 -36 54 -68 105 -72 115 -4 9 -23 44 -43 78 -64 107
-217 427 -250 524 -17 52 -38 104 -45 115 -7 12 -16 37 -20 56 -4 19 -13 49
-19 65 -41 100 -76 222 -76 267 0 20 -4 39 -8 42 -5 3 -14 29 -21 58 -6 29
-19 82 -27 118 -15 62 -21 94 -45 220 -6 30 -15 116 -20 190 -5 74 -14 198
-20 275 -14 183 -14 652 1 830 6 77 15 196 20 265 12 174 36 344 50 365 4 6
10 33 14 61 7 56 31 157 45 189 5 11 14 52 21 90 14 84 31 144 58 211 29 72
72 209 72 229 0 9 7 29 15 43 8 15 26 63 41 107 14 44 30 85 33 90 4 6 16 33
26 60 10 28 30 70 45 95 14 25 32 61 40 80 8 19 24 52 37 72 13 21 30 57 40
80 9 24 26 57 38 73 34 48 115 185 115 195 0 6 4 10 10 10 5 0 16 16 25 35 9
19 23 39 31 46 8 6 14 17 14 24 0 7 7 15 15 19 8 3 15 10 15 16 0 13 114 176
139 200 9 8 28 34 44 58 15 23 31 42 35 42 4 0 26 24 47 53 46 60 252 267 267
267 5 0 42 33 81 74 40 41 86 82 103 92 17 11 44 34 59 52 15 18 39 39 54 47
14 7 38 26 54 40 15 14 44 33 65 42 20 8 57 29 82 46 77 52 93 62 150 91 30
16 62 35 71 42 9 8 39 22 67 32 27 10 56 23 64 29 7 5 47 24 88 41 41 17 94
40 117 51 23 12 55 21 71 21 16 0 35 6 41 14 7 8 27 18 44 22 18 3 37 10 42
14 6 4 33 13 60 19 143 34 275 64 315 71 25 5 68 14 95 20 28 6 73 15 100 21
94 19 320 31 580 31 324 0 524 -14 725 -51 30 -6 78 -13 105 -16 28 -4 61 -10
75 -15 24 -8 78 -19 198 -40 143 -27 218 -46 289 -77 17 -7 40 -13 50 -13 11
0 46 -9 79 -20 32 -12 106 -34 164 -50 58 -17 113 -35 122 -40 10 -6 23 -10
29 -10 7 0 30 -8 53 -19 110 -50 137 -61 148 -61 6 0 32 -9 57 -21 92 -42 106
-49 131 -59 14 -5 32 -14 40 -20 24 -15 102 -47 135 -54 17 -4 80 -31 140 -60
61 -30 133 -63 160 -76 48 -21 88 -40 165 -79 19 -10 49 -24 65 -32 17 -7 48
-25 70 -39 22 -14 78 -45 125 -69 47 -24 92 -49 100 -56 8 -7 41 -25 73 -40
31 -16 57 -31 57 -35 0 -4 15 -14 33 -21 17 -7 51 -26 74 -41 23 -16 59 -36
80 -44 21 -9 40 -19 43 -23 3 -4 23 -18 45 -31 22 -13 76 -47 120 -75 152 -99
200 -129 225 -143 14 -7 41 -25 60 -40 19 -15 47 -34 62 -42 78 -44 97 -56
155 -101 34 -27 67 -49 72 -49 6 0 36 -22 68 -48 50 -42 107 -83 206 -152 12
-8 49 -35 82 -60 57 -43 89 -66 141 -100 22 -15 42 -31 144 -117 28 -24 54
-43 59 -43 4 0 28 -19 53 -42 46 -43 77 -67 193 -154 33 -25 106 -89 161 -142
56 -53 115 -107 130 -120 115 -92 172 -141 197 -169 16 -18 34 -33 40 -33 6 0
20 -9 31 -19 19 -18 129 -95 266 -188 30 -20 80 -59 110 -86 30 -27 69 -56 87
-65 18 -9 33 -19 33 -24 0 -4 6 -8 14 -8 16 0 28 -9 259 -200 27 -22 54 -40
62 -40 8 0 18 -6 22 -13 4 -7 26 -24 47 -37 22 -13 62 -43 88 -67 27 -24 54
-43 61 -43 14 0 235 -158 297 -212 19 -16 91 -64 160 -106 69 -41 127 -78 130
-82 10 -12 119 -76 186 -109 23 -12 47 -27 53 -35 7 -8 33 -24 59 -36 26 -12
49 -26 52 -30 13 -20 591 -320 616 -320 7 0 50 -20 96 -44 46 -23 94 -46 108
-50 25 -8 206 -79 245 -96 39 -18 101 -42 170 -67 39 -14 88 -33 110 -43 22
-10 99 -37 170 -59 72 -23 139 -46 150 -51 11 -4 52 -16 90 -25 78 -18 311
-91 337 -105 9 -5 36 -13 60 -16 24 -4 48 -11 54 -16 7 -5 40 -15 75 -22 58
-12 122 -30 204 -58 48 -16 219 -55 280 -64 22 -3 55 -13 74 -21 18 -8 70 -19
115 -24 44 -4 101 -13 126 -19 56 -13 125 -26 210 -40 36 -6 92 -17 125 -24
117 -28 225 -43 405 -56 69 -5 166 -14 215 -20 103 -12 248 -25 455 -41 196
-14 1209 -22 1235 -10 11 6 67 12 125 15 106 6 211 16 375 36 50 6 146 15 215
20 119 8 197 19 285 39 22 5 78 16 125 25 101 20 146 32 221 57 31 10 71 19
90 19 39 1 114 16 144 29 38 18 140 49 182 56 23 3 47 13 54 21 6 8 17 14 23
14 13 -1 167 47 211 65 17 7 48 18 70 25 22 7 54 18 70 25 17 7 44 18 60 23
17 6 68 27 115 47 47 21 103 44 125 52 22 8 54 25 70 37 17 12 84 48 150 81
66 32 139 71 162 87 23 15 50 32 60 36 20 8 56 30 208 132 29 19 81 54 116 77
35 23 73 50 84 61 11 10 36 30 55 44 19 14 45 35 57 47 12 12 25 21 28 21 8 0
158 146 319 310 105 106 296 329 296 345 0 3 25 39 55 80 30 40 55 78 55 82 0
5 14 25 30 45 17 20 37 56 46 79 8 24 19 46 24 49 13 8 125 228 133 262 4 15
14 33 22 41 14 14 91 191 102 232 2 11 9 29 13 40 5 11 23 65 40 120 18 55 36
110 41 123 5 13 14 54 20 90 20 126 27 157 49 237 13 44 26 105 30 135 5 30
13 73 19 95 26 100 34 276 34 720 1 469 -11 714 -38 790 -7 22 -16 67 -19 100
-3 33 -10 85 -16 115 -5 30 -12 82 -16 115 -3 33 -14 96 -24 140 -10 44 -23
114 -30 155 -15 99 -30 179 -40 210 -5 14 -22 79 -39 145 -18 66 -40 149 -51
185 -11 36 -29 103 -41 150 -13 47 -28 94 -35 105 -7 11 -15 36 -19 55 -13 67
-163 529 -178 548 -6 7 -30 71 -54 143 -41 122 -135 324 -176 379 -10 14 -25
39 -33 55 -8 17 -39 68 -70 115 -30 47 -62 101 -72 120 -9 20 -34 59 -54 87
-21 28 -38 53 -38 56 0 10 -119 177 -175 245 -16 20 -33 41 -37 47 -4 5 -25
31 -45 56 -21 25 -49 60 -63 79 -56 76 -105 136 -144 176 -23 24 -75 79 -116
123 -118 128 -352 361 -361 361 -4 0 -41 32 -81 70 -40 39 -81 73 -90 76 -10
3 -18 9 -18 13 0 4 -24 25 -52 46 -29 22 -59 46 -66 52 -7 7 -17 13 -20 13 -4
0 -21 13 -38 28 -17 15 -55 43 -85 62 -30 19 -57 38 -60 43 -3 4 -20 16 -37
25 -17 9 -69 44 -114 76 -46 33 -143 91 -217 128 -74 38 -146 77 -160 87 -26
18 -71 40 -166 81 -27 12 -68 30 -90 41 -22 10 -55 21 -73 25 -17 4 -32 10
-32 14 0 5 -39 20 -87 35 -49 15 -129 42 -180 60 -50 18 -117 38 -147 45 -31
6 -69 18 -84 26 -15 8 -37 14 -48 14 -12 0 -37 6 -55 14 -19 7 -77 16 -129 19
-52 3 -115 14 -140 23 -39 15 -102 17 -495 19 -247 2 -481 0 -520 -4z m-15533
-3015 c46 -20 107 -94 115 -139 10 -62 -15 -135 -60 -178 -39 -38 -40 -39
-117 -39 -77 0 -78 0 -119 40 l-41 40 0 89 c0 86 1 91 33 132 17 23 48 50 67
61 37 20 62 19 122 -6z m-736 -211 c90 -32 104 -41 156 -95 47 -49 61 -72 79
-132 14 -46 23 -101 23 -148 1 -70 -2 -81 -48 -173 -55 -111 -78 -133 -181
-172 -62 -23 -80 -26 -155 -22 -143 8 -222 52 -298 167 l-37 55 -3 136 -3 136
32 64 c36 70 96 135 146 155 17 8 34 18 38 24 3 5 18 10 33 10 15 1 41 7 57
15 43 20 51 19 161 -20z m12243 -204 c8 -5 12 -18 8 -32 -20 -82 -28 -105 -46
-130 -31 -42 -27 -82 10 -110 17 -13 56 -48 87 -77 31 -29 70 -60 86 -68 36
-20 49 -30 97 -75 65 -61 112 -89 151 -89 42 0 68 8 68 21 0 14 33 49 47 49
34 0 37 -61 7 -119 -8 -14 -14 -33 -14 -41 0 -9 43 -59 96 -112 l96 -96 5 -59
c8 -91 -13 -128 -85 -149 -80 -24 -123 -15 -181 38 -86 78 -125 108 -143 108
-9 0 -36 -25 -60 -57 -24 -31 -63 -80 -88 -108 -57 -66 -141 -181 -159 -217
-7 -16 -16 -28 -20 -28 -4 0 -27 -27 -51 -61 -25 -33 -71 -91 -102 -127 -32
-36 -58 -71 -58 -76 0 -6 -18 -29 -39 -51 -63 -64 -116 -128 -130 -157 -8 -16
-17 -28 -20 -28 -4 0 -24 -26 -46 -57 -22 -31 -57 -75 -77 -96 -20 -21 -40
-47 -43 -57 -3 -11 -19 -30 -34 -43 -16 -13 -36 -37 -44 -53 -8 -16 -25 -38
-37 -49 -12 -11 -31 -37 -41 -57 -10 -20 -43 -63 -73 -95 -30 -33 -73 -84 -95
-114 -22 -30 -45 -60 -51 -67 -6 -7 -32 -43 -57 -80 -56 -82 -79 -112 -120
-161 -18 -21 -33 -42 -33 -47 0 -5 -20 -31 -45 -57 -25 -27 -45 -55 -45 -63 0
-8 -4 -14 -9 -14 -9 0 -33 -31 -136 -170 -27 -37 -66 -86 -85 -108 -19 -23
-53 -64 -75 -92 -22 -28 -56 -70 -75 -93 -20 -23 -49 -60 -65 -82 -16 -22 -35
-46 -42 -53 -7 -7 -13 -17 -13 -21 0 -4 -17 -25 -37 -48 -21 -22 -49 -57 -63
-77 -14 -21 -30 -43 -36 -49 -6 -7 -18 -24 -28 -39 -13 -20 -27 -28 -47 -28
-25 0 -29 4 -29 28 0 27 29 100 49 124 49 58 130 162 180 230 33 46 80 103
105 127 25 24 46 47 46 51 0 6 23 38 68 95 4 6 41 54 82 108 104 136 127 164
195 248 33 41 78 99 99 129 22 30 44 60 51 65 20 19 105 133 105 143 0 5 7 16
16 23 9 7 38 46 65 86 28 40 53 73 57 73 4 0 18 17 32 38 13 20 45 60 70 88
60 67 117 138 160 197 19 27 49 65 66 85 17 21 39 52 48 70 9 18 37 54 63 80
25 26 62 70 83 97 38 50 77 96 103 125 8 8 21 29 30 45 8 17 27 41 41 54 14
14 26 29 26 34 0 6 19 31 43 57 49 55 105 131 127 170 8 15 32 47 52 71 122
143 138 166 138 209 0 23 -51 84 -96 114 -60 41 -140 107 -210 177 -79 78
-130 103 -175 87 -15 -5 -32 -22 -39 -38 -6 -15 -25 -40 -41 -54 -16 -14 -29
-31 -29 -37 0 -6 -12 -26 -27 -44 -16 -18 -48 -59 -73 -90 -25 -32 -55 -68
-67 -80 -13 -12 -23 -27 -23 -33 0 -5 -20 -31 -45 -58 -25 -26 -45 -52 -45
-58 0 -6 -16 -24 -35 -40 -19 -16 -35 -34 -35 -40 0 -10 -42 -66 -104 -141
-14 -16 -43 -55 -65 -85 -22 -30 -51 -66 -64 -80 -13 -14 -30 -37 -37 -50 -7
-14 -29 -44 -49 -67 -72 -84 -100 -119 -129 -162 -34 -50 -51 -72 -116 -151
-63 -76 -186 -235 -214 -276 -12 -19 -26 -34 -31 -34 -8 0 -68 -82 -104 -144
-10 -17 -33 -49 -50 -71 -17 -22 -36 -46 -42 -54 -5 -8 -29 -34 -52 -57 -24
-24 -43 -48 -43 -53 0 -9 -53 -77 -101 -130 -12 -14 -32 -39 -43 -55 -59 -86
-99 -136 -106 -136 -5 0 -11 -8 -15 -19 -10 -31 -165 -230 -270 -347 -33 -36
-64 -74 -69 -83 -32 -54 -70 -62 -82 -16 -9 36 32 103 127 209 20 23 39 51 43
63 4 11 17 28 29 36 13 8 40 43 62 78 21 35 43 66 47 67 5 2 41 47 80 100 40
54 78 103 85 110 7 7 13 17 13 21 0 4 8 16 18 27 10 10 27 33 39 50 12 16 40
50 62 75 56 60 169 204 239 302 29 40 64 84 125 153 26 30 47 58 47 62 0 4 12
20 27 37 40 42 113 143 113 155 0 6 4 10 9 10 10 0 71 85 71 98 0 4 15 23 33
42 18 19 48 55 67 80 19 25 40 50 46 55 7 6 23 29 37 51 14 23 51 68 81 101
31 34 56 65 56 70 0 5 12 20 26 34 14 13 33 38 41 54 9 17 24 36 35 43 10 7
25 27 34 43 8 17 22 38 30 47 72 84 104 124 104 130 0 5 26 34 57 67 67 69
115 130 139 177 9 18 45 70 80 115 35 45 64 89 64 98 0 8 -22 45 -50 81 -58
76 -62 103 -24 172 37 67 40 69 96 86 59 17 81 11 122 -33 17 -17 36 -31 45
-31 21 0 80 42 86 61 6 18 72 89 83 89 4 0 13 -4 21 -9z m-651 -438 c2 -19 -3
-39 -13 -50 -17 -19 -40 -51 -102 -143 -20 -30 -53 -73 -74 -95 -48 -51 -79
-91 -79 -102 0 -4 -21 -33 -46 -63 -25 -30 -61 -79 -81 -107 -19 -29 -38 -53
-42 -53 -4 0 -15 -16 -24 -35 -9 -19 -21 -35 -25 -35 -5 0 -22 -19 -38 -42
-15 -24 -46 -64 -69 -90 -44 -51 -45 -52 -95 -123 -41 -59 -39 -57 -90 -115
-22 -25 -40 -48 -40 -52 0 -6 -32 -46 -112 -141 -18 -22 -37 -47 -43 -57 -13
-22 -62 -84 -96 -118 -14 -15 -45 -57 -68 -94 -23 -36 -48 -69 -56 -72 -8 -3
-15 -12 -15 -20 0 -8 -20 -36 -45 -63 -25 -26 -45 -53 -45 -59 0 -6 -15 -25
-32 -41 -33 -31 -39 -38 -88 -109 -14 -19 -39 -51 -56 -69 -30 -34 -51 -63
-110 -156 -33 -51 -96 -127 -161 -195 -24 -25 -48 -55 -54 -67 -13 -23 -67
-92 -107 -136 -27 -30 -75 -99 -96 -139 -8 -15 -23 -36 -34 -48 -11 -11 -32
-38 -46 -60 -45 -67 -74 -105 -113 -149 -106 -120 -193 -227 -193 -240 0 -4
-19 -24 -41 -46 -54 -52 -74 -48 -73 11 2 35 12 60 48 115 25 39 49 75 54 80
4 6 19 26 32 45 14 19 30 42 38 50 7 8 33 39 57 68 25 29 45 56 45 60 0 4 18
26 40 50 22 24 40 46 40 51 0 4 18 26 40 49 22 22 40 46 40 54 0 7 16 26 35
42 19 16 35 33 35 38 0 7 61 89 103 138 69 80 137 169 137 178 0 7 4 12 8 12
4 0 30 32 57 71 28 39 57 78 65 88 8 9 31 37 50 61 19 25 43 51 52 58 10 7 27
31 38 53 11 21 24 39 28 39 4 0 36 41 71 90 35 50 67 90 72 90 5 0 15 13 24
29 8 16 28 44 45 63 17 18 33 41 36 50 3 10 9 18 14 18 5 0 38 40 74 90 36 49
74 97 84 107 10 10 34 38 53 63 18 24 46 58 62 74 15 17 27 34 27 37 0 4 27
40 60 81 33 40 60 79 60 86 0 6 4 12 8 12 7 0 127 155 233 301 20 27 42 55 50
62 9 6 28 30 44 52 16 22 37 46 47 53 10 7 18 18 18 24 0 6 15 28 33 49 60 72
87 107 87 114 0 3 7 14 16 22 9 9 34 40 56 70 23 29 56 70 74 90 19 20 34 43
34 49 0 17 30 34 55 31 15 -1 21 -11 23 -34z m-12216 -152 c31 -12 117 -97
129 -128 27 -72 -14 -196 -70 -208 -16 -3 -35 -13 -42 -21 -19 -23 -100 -18
-151 11 -64 35 -80 58 -86 114 -8 83 4 118 60 177 27 29 60 55 71 57 40 8 65
7 89 -2z m12693 -221 c8 -12 -14 -90 -32 -111 -7 -8 -13 -19 -13 -23 0 -13
-104 -148 -140 -181 -17 -16 -52 -59 -78 -95 -46 -64 -129 -170 -141 -180 -4
-3 -22 -30 -41 -60 -19 -30 -39 -59 -46 -65 -6 -5 -41 -52 -79 -102 -37 -51
-72 -93 -76 -93 -4 0 -11 -10 -15 -22 -3 -12 -25 -42 -48 -67 -62 -69 -120
-141 -148 -186 -27 -42 -63 -90 -123 -165 -33 -41 -132 -168 -180 -231 -11
-14 -48 -62 -82 -105 -34 -43 -75 -96 -90 -117 -15 -22 -47 -60 -70 -86 -24
-27 -43 -52 -43 -58 0 -5 -11 -20 -25 -33 -14 -13 -25 -27 -25 -32 0 -5 -9
-19 -21 -31 -12 -12 -33 -38 -47 -57 -15 -19 -41 -53 -60 -75 -18 -22 -38 -47
-45 -55 -7 -8 -25 -34 -41 -57 -16 -24 -32 -43 -37 -43 -4 0 -11 -9 -14 -20
-4 -11 -24 -41 -46 -66 -21 -25 -39 -48 -39 -52 0 -4 -17 -26 -38 -49 -20 -23
-48 -58 -62 -79 -14 -20 -40 -53 -58 -72 -18 -20 -42 -48 -53 -62 -72 -93
-126 -165 -135 -182 -7 -11 -25 -34 -41 -51 -16 -18 -51 -61 -78 -97 -97 -130
-156 -176 -171 -135 -14 36 28 112 145 259 31 39 65 83 76 98 27 36 143 180
200 249 26 30 61 76 78 101 18 25 44 60 58 79 14 19 59 79 100 134 41 55 80
104 87 108 7 5 21 21 30 36 9 15 32 45 50 67 61 73 172 216 172 223 0 3 17 24
38 46 22 22 83 100 137 174 95 130 124 167 156 200 21 22 158 203 192 254 15
23 44 60 65 83 20 22 55 67 77 99 22 32 57 79 77 104 21 25 57 71 80 101 23
30 51 62 63 72 11 9 30 32 40 52 11 20 22 36 26 36 4 0 12 13 19 30 7 16 23
36 36 45 13 8 35 32 48 53 13 20 32 46 42 57 11 11 36 45 56 75 69 101 107
153 116 159 10 7 80 93 126 156 17 22 35 43 40 47 16 11 44 10 51 -2z m595
-398 c0 -15 -11 -43 -25 -62 -14 -19 -25 -38 -25 -43 0 -5 -17 -31 -37 -57
-21 -27 -48 -61 -60 -77 -12 -16 -39 -47 -60 -69 -21 -23 -56 -67 -78 -98 -62
-88 -169 -230 -181 -241 -6 -5 -18 -21 -27 -34 -9 -14 -30 -41 -47 -60 -53
-63 -205 -262 -218 -286 -7 -13 -26 -36 -42 -52 -17 -15 -30 -33 -30 -40 0 -7
-17 -30 -37 -51 -33 -34 -106 -127 -153 -196 -8 -11 -31 -40 -52 -63 -21 -24
-38 -46 -38 -51 0 -5 -17 -27 -37 -49 -21 -22 -58 -68 -83 -103 -25 -35 -52
-71 -61 -79 -9 -9 -41 -50 -72 -91 -31 -41 -74 -97 -96 -125 -22 -27 -60 -79
-85 -115 -49 -72 -66 -93 -211 -270 -55 -68 -117 -146 -137 -174 -21 -28 -46
-62 -55 -75 -10 -14 -26 -34 -35 -45 -31 -38 -93 -120 -111 -149 -10 -15 -40
-53 -68 -83 -27 -30 -49 -59 -49 -64 0 -5 -14 -22 -31 -37 -17 -16 -38 -41
-46 -58 -29 -56 -64 -85 -104 -85 -36 0 -49 12 -49 45 0 14 62 96 120 160 20
22 43 50 51 62 8 11 36 49 63 84 67 86 68 88 91 113 11 12 40 49 64 82 25 32
55 70 67 84 56 64 93 108 120 145 40 55 40 56 74 95 16 19 46 60 67 90 21 30
62 87 93 125 30 39 72 93 92 120 20 28 49 61 65 75 15 14 34 35 41 45 40 64
103 148 130 176 18 18 32 38 32 44 0 6 11 22 25 35 14 13 25 29 25 37 0 7 4
13 8 13 5 0 43 46 86 103 42 56 99 125 126 152 28 28 50 55 50 61 0 6 11 21
25 34 14 13 25 28 25 33 0 5 13 23 30 40 16 18 60 75 97 127 37 52 75 104 85
114 10 11 18 24 18 28 0 5 25 35 56 66 30 31 64 71 74 87 11 17 30 44 44 60
39 47 54 67 86 116 17 26 53 71 80 100 27 30 50 57 50 60 0 3 26 39 58 81 31
42 75 102 97 133 59 84 125 113 125 57z"/>
<path d="M15415 18971 c-22 -9 -80 -71 -107 -112 -40 -63 -58 -140 -58 -250 0
-83 3 -109 15 -119 8 -7 15 -18 15 -26 0 -35 118 -144 239 -221 24 -15 57 -41
74 -56 16 -15 42 -34 58 -43 16 -8 29 -18 29 -22 0 -4 15 -15 33 -25 17 -10
48 -31 67 -47 52 -45 53 -45 85 -66 17 -10 35 -22 40 -27 29 -23 176 -127 179
-127 2 0 21 -16 42 -36 22 -19 61 -49 89 -67 27 -18 57 -39 66 -47 28 -27 113
-84 153 -102 21 -10 67 -23 101 -28 35 -6 71 -13 79 -16 18 -7 136 25 157 43
8 7 18 13 22 13 16 0 82 54 98 79 9 16 26 35 38 43 20 14 61 97 61 124 0 22
-97 113 -184 174 -44 30 -98 71 -120 91 -23 20 -48 39 -56 42 -8 4 -40 28 -70
52 -30 25 -98 78 -150 117 -52 40 -99 75 -105 80 -40 31 -76 58 -115 83 -25
16 -62 43 -82 60 -94 76 -106 85 -117 85 -6 0 -11 4 -11 8 0 5 -23 19 -51 32
-28 14 -56 32 -62 41 -7 9 -23 22 -37 29 -14 7 -38 25 -55 40 -34 32 -176 130
-226 156 -18 9 -39 23 -47 30 -7 8 -19 14 -27 14 -7 0 -19 2 -27 4 -7 3 -22 1
-33 -3z"/>
<path d="M15482 17950 c-19 -10 -55 -38 -80 -62 -48 -44 -122 -98 -135 -98 -4
0 -29 -15 -55 -34 -27 -18 -59 -37 -73 -41 -13 -4 -50 -23 -82 -41 -32 -19
-62 -34 -66 -34 -10 0 -158 -47 -186 -59 -30 -13 -113 -29 -185 -36 -36 -3
-78 -10 -95 -15 -82 -23 -126 -33 -185 -40 -84 -10 -220 -35 -243 -45 -24 -10
-47 -57 -47 -95 0 -17 -5 -41 -12 -53 -15 -28 -27 -121 -57 -421 -7 -66 -17
-129 -23 -140 -6 -12 -15 -52 -19 -91 -4 -38 -12 -92 -18 -120 -6 -27 -16 -95
-21 -150 -6 -55 -16 -113 -22 -130 -6 -16 -14 -79 -19 -140 -10 -142 -24 -258
-38 -315 -11 -48 -39 -122 -50 -130 -3 -3 -18 -23 -32 -45 -15 -23 -43 -54
-64 -70 -20 -17 -64 -55 -96 -86 -58 -55 -59 -57 -59 -111 0 -59 23 -140 46
-158 30 -26 128 30 174 98 15 23 51 65 79 94 28 28 51 55 51 58 0 4 12 20 26
36 14 16 43 52 63 79 21 28 45 56 54 64 10 7 17 19 17 26 0 8 4 15 9 17 4 2
20 21 35 43 15 22 37 54 49 70 12 17 57 77 99 135 42 58 84 112 92 120 8 8 20
27 27 43 7 15 15 27 19 27 4 0 20 19 36 43 16 23 34 49 41 57 75 89 120 146
131 166 17 31 17 67 2 174 -15 109 -15 144 -1 204 15 67 65 136 131 182 47 32
64 39 121 42 102 6 170 -23 288 -125 42 -36 59 -80 62 -163 6 -127 -26 -195
-118 -256 -65 -43 -232 -93 -315 -94 -42 0 -53 -5 -86 -37 -22 -21 -51 -56
-65 -78 -49 -72 -98 -139 -135 -181 -20 -23 -55 -65 -77 -94 -22 -28 -67 -82
-100 -118 -34 -37 -78 -94 -99 -127 -46 -71 -54 -82 -126 -172 -31 -37 -72
-93 -92 -124 -20 -30 -44 -62 -53 -69 -9 -7 -31 -36 -49 -64 -18 -28 -47 -73
-64 -100 -35 -54 -41 -105 -16 -130 21 -22 107 -21 161 1 29 12 51 31 69 60
15 24 33 48 40 54 8 6 14 19 14 29 0 48 146 220 187 220 7 0 13 3 13 8 0 7 75
48 150 80 25 10 92 40 150 66 58 25 109 46 114 46 11 0 99 42 106 51 3 3 32
15 65 26 86 29 205 78 320 133 55 26 111 51 125 55 34 10 88 32 132 55 20 11
63 29 95 41 32 12 63 26 69 30 6 5 42 20 80 33 105 37 137 52 162 79 21 23 23
32 18 84 -3 32 -10 99 -15 148 -6 50 -15 128 -22 175 -17 108 -17 471 -1 570
22 144 52 244 96 329 19 37 37 84 41 106 4 22 11 55 17 73 15 51 -13 117 -55
131 -18 6 -58 36 -90 66 -31 30 -82 71 -114 92 -32 21 -60 41 -61 46 -7 14
-81 47 -104 46 -13 -1 -38 -10 -56 -19z"/>
<path d="M14342 14103 c-11 -4 -12 -204 -6 -1081 4 -684 10 -1082 17 -1089 14
-19 490 -18 506 0 7 9 12 181 16 543 12 1234 16 1429 25 1438 6 6 10 45 10 87
0 114 12 109 -300 108 -140 0 -261 -3 -268 -6z"/>
<path d="M15183 14103 c-26 -10 -14 -67 22 -103 19 -19 35 -37 35 -41 0 -4 39
-56 87 -116 47 -59 95 -123 106 -140 10 -18 22 -33 26 -33 3 0 17 -19 30 -43
l23 -42 -21 -64 c-12 -36 -21 -78 -21 -96 0 -17 -5 -36 -11 -42 -6 -6 -17 -55
-24 -109 -17 -121 -42 -240 -57 -274 -6 -14 -17 -65 -24 -115 -7 -49 -18 -110
-24 -135 -6 -25 -14 -67 -19 -95 -11 -61 -30 -133 -41 -160 -5 -11 -14 -56
-20 -100 -6 -44 -15 -100 -20 -125 -26 -127 -33 -157 -42 -175 -5 -11 -10 -54
-11 -95 l-2 -75 264 -3 c322 -3 306 -8 315 110 3 46 10 117 16 158 12 93 27
217 41 335 6 50 14 124 19 165 5 41 14 113 19 160 6 47 15 123 21 170 6 47 14
104 17 127 10 85 58 80 119 -12 20 -30 41 -55 45 -55 5 0 9 -6 9 -14 0 -7 7
-20 16 -27 9 -8 27 -30 39 -49 13 -19 39 -53 59 -75 20 -22 53 -65 74 -95 20
-30 51 -70 69 -88 18 -19 49 -59 70 -90 21 -32 41 -59 44 -62 16 -13 108 -130
128 -162 12 -21 26 -38 31 -38 4 0 13 -14 20 -31 7 -17 24 -38 37 -46 13 -9
31 -30 40 -47 9 -17 30 -47 47 -67 55 -65 71 -85 96 -122 14 -20 28 -37 32
-37 4 0 16 -17 27 -37 34 -67 55 -73 264 -73 141 0 187 3 196 13 7 9 12 170
15 513 3 274 10 612 15 749 23 612 29 900 17 907 -6 4 -131 8 -277 8 -221 0
-269 -2 -279 -15 -8 -10 -10 -48 -6 -137 25 -496 42 -1041 33 -1054 -14 -21
-41 -4 -74 44 -31 45 -160 219 -202 272 -11 14 -64 86 -119 160 -55 74 -110
148 -123 164 -13 16 -42 55 -64 86 -65 92 -138 191 -162 219 -13 14 -23 31
-23 38 0 7 -6 16 -13 20 -7 4 -43 49 -80 98 -38 50 -76 93 -85 97 -19 8 -720
9 -739 1z"/>
<path d="M17746 14097 c-15 -11 -17 -23 -11 -88 11 -127 25 -788 30 -1438 4
-433 9 -629 16 -638 16 -18 489 -19 507 -1 9 9 12 111 12 400 0 383 0 387 21
399 21 11 41 10 424 -12 99 -5 223 -11 275 -12 l95 -2 3 231 2 230 -22 12
c-16 9 -134 13 -408 15 l-385 2 -3 219 c-2 157 1 222 9 233 13 15 154 14 499
-7 96 -5 252 -14 345 -19 94 -5 185 -12 203 -16 61 -14 62 -9 62 251 0 220 -1
234 -19 244 -32 16 -1632 14 -1655 -3z"/>
<path d="M19707 14092 c-14 -16 -17 -43 -17 -173 0 -111 4 -159 13 -167 12
-13 19 -252 35 -1342 l7 -485 255 0 255 0 7 675 c4 371 10 857 13 1080 5 376
5 406 -11 417 -13 10 -84 13 -279 13 -241 0 -263 -1 -278 -18z"/>
<path d="M20551 14101 c-22 -14 -6 -50 60 -131 33 -41 71 -91 84 -110 12 -19
32 -44 43 -56 11 -11 27 -35 36 -51 8 -17 22 -33 30 -36 21 -8 76 -107 76
-136 0 -13 -4 -40 -9 -60 -5 -20 -14 -65 -21 -101 -6 -36 -15 -78 -20 -95 -11
-37 -40 -173 -51 -240 -12 -74 -25 -139 -49 -240 -12 -49 -26 -112 -30 -140
-5 -27 -14 -75 -20 -105 -6 -30 -15 -77 -20 -105 -5 -27 -16 -72 -24 -100 -8
-27 -19 -81 -26 -120 -6 -38 -15 -86 -20 -105 -13 -49 -42 -201 -44 -225 -1
-20 5 -20 284 -20 l284 0 8 35 c9 35 20 126 37 284 5 46 12 90 17 97 7 12 28
201 41 379 3 41 9 79 14 85 5 5 9 34 9 65 0 31 6 79 14 106 8 27 17 85 20 129
9 112 40 134 87 59 11 -19 24 -34 29 -34 5 0 19 -17 31 -37 13 -21 31 -44 41
-51 10 -7 18 -18 18 -24 0 -6 14 -27 30 -47 71 -84 117 -141 140 -176 14 -20
43 -58 65 -84 22 -26 67 -85 100 -130 33 -46 82 -108 108 -139 27 -32 56 -69
65 -84 9 -16 20 -28 24 -28 4 0 8 -5 8 -11 0 -6 16 -29 35 -52 38 -46 83 -104
130 -167 17 -23 48 -63 70 -89 22 -27 48 -58 57 -70 17 -20 26 -21 207 -21
143 0 191 3 199 13 7 9 13 131 16 353 3 186 10 452 16 589 39 950 45 1188 30
1214 -10 20 -18 21 -273 21 -196 0 -267 -3 -279 -12 -14 -12 -14 -44 -6 -283
10 -301 25 -638 33 -791 6 -90 4 -102 -11 -108 -9 -4 -25 -1 -34 6 -24 17
-230 292 -230 307 0 6 -4 11 -9 11 -8 0 -59 65 -103 130 -9 14 -27 37 -40 52
-12 15 -34 44 -48 63 -14 20 -53 72 -87 117 -35 45 -63 84 -63 87 0 3 -16 23
-35 45 -19 21 -35 42 -35 47 0 4 -10 19 -22 33 -13 13 -30 34 -38 46 -8 12
-26 37 -40 56 -14 19 -50 67 -80 108 -30 41 -64 77 -75 80 -33 9 -739 6 -754
-3z"/>
<path d="M23142 14102 c-10 -7 -11 -79 -7 -348 3 -186 8 -669 10 -1073 4 -516
9 -738 16 -748 9 -10 64 -13 255 -13 207 0 245 2 258 16 14 14 16 110 16 914
0 588 3 901 10 905 6 4 10 72 10 170 0 152 -1 165 -19 175 -23 12 -530 14
-549 2z"/>
<path d="M23950 14103 c-8 -3 -18 -11 -22 -17 -4 -6 -8 -117 -8 -246 0 -201 2
-239 16 -259 13 -18 22 -21 43 -17 30 7 125 23 226 37 241 34 340 47 417 55
52 6 57 4 72 -19 18 -26 18 45 1 -1262 -3 -225 -3 -420 0 -432 l5 -23 251 0
c153 0 258 4 270 10 18 10 19 24 19 309 0 240 -3 307 -15 341 -13 36 -15 123
-15 539 0 578 -5 546 89 537 59 -6 170 -19 306 -36 44 -5 121 -15 170 -21 50
-6 108 -12 130 -12 l40 -2 0 260 0 260 -990 2 c-544 1 -997 -1 -1005 -4z"/>
<path d="M26071 14101 c-16 -10 -9 -52 14 -75 8 -8 15 -18 15 -23 0 -7 49 -85
68 -108 5 -6 26 -41 46 -78 21 -38 49 -81 61 -95 12 -15 26 -38 30 -52 4 -13
25 -48 46 -76 22 -28 39 -55 39 -60 0 -5 17 -35 38 -66 63 -97 82 -129 82
-139 0 -5 5 -9 10 -9 6 0 10 -6 10 -13 0 -7 7 -22 15 -32 28 -36 75 -110 75
-118 0 -4 25 -43 55 -87 30 -44 55 -83 55 -87 0 -5 20 -37 45 -73 25 -36 45
-69 45 -74 0 -4 13 -25 29 -45 15 -20 36 -49 45 -66 9 -16 20 -37 25 -45 41
-65 57 -190 29 -218 -18 -18 -25 -507 -7 -528 17 -21 551 -21 569 1 8 10 10
35 5 82 -3 37 -8 193 -11 345 -4 253 -3 280 13 305 10 15 20 30 24 33 3 3 20
32 38 65 18 32 45 75 60 95 14 19 34 51 44 70 9 19 41 73 71 120 30 47 61 96
67 110 7 14 27 45 45 70 17 25 44 68 59 95 15 28 35 59 46 71 10 11 19 24 19
29 0 8 11 26 66 109 24 36 103 165 145 236 17 30 35 57 39 60 3 3 22 32 40 65
19 33 51 86 72 117 41 62 46 83 22 92 -20 8 -552 8 -581 0 -15 -4 -34 -29 -57
-73 -19 -36 -45 -86 -60 -111 -14 -25 -31 -57 -38 -72 -7 -16 -16 -28 -20 -28
-4 0 -8 -6 -8 -12 0 -18 -78 -168 -99 -193 -10 -11 -24 -36 -31 -55 -8 -19
-27 -56 -42 -81 -15 -25 -28 -51 -28 -56 0 -6 -16 -34 -35 -62 -19 -28 -42
-70 -52 -93 -47 -121 -100 -100 -162 65 -6 15 -15 27 -20 27 -5 0 -11 8 -15
18 -3 9 -10 24 -15 32 -6 8 -23 42 -39 75 -51 104 -65 129 -84 149 -10 11 -18
27 -18 37 0 9 -7 22 -15 29 -8 7 -15 17 -15 22 0 5 -24 50 -53 101 -29 51 -59
108 -67 127 -8 19 -32 62 -55 95 l-41 60 -319 2 c-176 2 -326 -1 -334 -6z"/>
<path d="M24067 11093 c-5 -4 -1893 -11 -4195 -15 -2303 -4 -4313 -8 -4467 -8
-154 -1 -336 2 -404 5 -78 4 -140 3 -168 -4 -23 -6 -64 -16 -90 -23 -27 -6
-68 -22 -93 -34 -25 -12 -49 -23 -55 -25 -25 -10 -175 -113 -175 -120 0 -5
-15 -26 -34 -46 -40 -46 -156 -210 -156 -223 0 -8 -55 -114 -70 -135 -4 -5
-13 -35 -20 -65 -7 -30 -17 -64 -22 -75 -21 -39 -32 -164 -31 -365 0 -196 9
-294 31 -336 5 -10 15 -44 22 -74 12 -57 50 -153 63 -158 4 -2 7 -10 7 -17 0
-14 48 -88 112 -172 34 -45 184 -174 243 -210 134 -81 166 -92 315 -106 106
-10 3471 -15 4160 -6 250 3 261 3 365 -1 33 -1 1028 -2 2210 -1 2529 1 5477 2
5895 1 162 0 349 0 415 1 66 0 164 -2 218 -6 125 -9 144 -4 164 42 29 70 -12
176 -88 229 -22 15 -61 51 -87 79 -48 52 -142 185 -142 200 0 4 -13 29 -30 56
-29 48 -64 159 -80 254 -4 28 -15 67 -24 87 -12 29 -16 73 -16 192 0 132 3
163 20 206 11 28 20 61 20 73 0 13 4 27 8 33 5 5 14 34 21 66 11 49 93 235
111 248 3 3 21 28 40 55 41 63 118 144 146 155 12 5 38 29 59 54 43 53 57 117
32 151 -15 20 -31 20 -1559 27 -849 4 -1568 7 -1598 6 -162 -3 -757 1 -900 7
-91 4 -169 3 -173 -2z m3682 -313 c42 -21 54 -40 44 -67 -18 -48 -17 -48 -387
-56 -436 -10 -1913 -10 -2954 0 l-784 8 -18 22 c-23 28 -16 57 16 72 18 8 243
11 777 11 616 1 757 3 782 15 25 11 239 14 1258 14 1200 1 1229 1 1266 -19z
m-12109 -188 c164 -30 170 -36 170 -179 0 -113 -10 -153 -38 -153 -10 0 -52
12 -93 26 -152 54 -249 66 -361 43 -59 -11 -89 -24 -133 -55 -16 -11 -37 -24
-46 -27 -28 -9 -89 -141 -99 -214 -6 -37 -10 -72 -10 -78 0 -26 19 -124 27
-141 6 -10 18 -35 27 -54 32 -67 88 -112 184 -149 75 -30 319 -30 402 -1 80
28 118 26 130 -6 11 -28 13 -146 4 -181 -26 -95 -420 -140 -624 -72 -111 37
-156 56 -199 85 -24 16 -61 40 -82 54 -59 39 -157 198 -175 285 -16 77 -10
315 10 380 29 98 94 204 166 272 59 56 194 131 267 149 38 9 79 20 93 24 33
11 310 5 380 -8z m3535 8 c3 -5 27 -10 53 -11 75 -1 160 -22 176 -44 18 -24
22 -234 6 -266 -13 -23 -47 -25 -77 -4 -41 29 -234 64 -356 64 -128 1 -227
-21 -273 -61 -29 -25 -34 -37 -34 -73 0 -37 5 -47 39 -78 53 -48 98 -61 179
-52 103 11 280 10 350 -2 112 -20 181 -77 217 -179 31 -87 32 -168 4 -260 -21
-65 -74 -164 -89 -164 -4 0 -25 -14 -46 -31 -48 -39 -126 -75 -179 -84 -22 -4
-45 -11 -52 -17 -16 -13 -420 -13 -436 0 -7 6 -30 13 -52 17 -22 3 -73 16
-114 28 -57 17 -75 26 -82 45 -10 26 -12 212 -3 236 8 20 36 20 72 2 51 -26
217 -70 297 -78 105 -12 146 -12 227 0 56 8 76 16 114 47 45 37 46 39 42 85
-3 32 -12 54 -29 71 -24 24 -28 24 -249 30 -124 3 -234 9 -245 13 -34 13 -139
67 -156 79 -27 20 -89 125 -110 184 -20 59 -26 158 -10 168 5 3 13 20 17 38
10 48 60 136 91 160 92 73 150 101 238 117 39 7 79 16 90 20 29 12 372 12 380
0z m1285 -8 c36 -6 85 -13 110 -17 25 -4 51 -14 58 -23 15 -20 17 -244 2 -273
-12 -22 -47 -25 -75 -6 -64 44 -228 71 -386 64 -147 -6 -192 -18 -236 -62 -27
-27 -33 -41 -33 -77 0 -35 6 -49 28 -70 40 -37 128 -62 193 -53 150 18 268 17
358 -5 85 -21 92 -25 143 -78 66 -70 78 -107 78 -243 0 -102 0 -105 -41 -185
-31 -63 -52 -89 -90 -118 -53 -40 -150 -86 -181 -86 -10 0 -35 -7 -56 -16 -53
-23 -410 -22 -464 0 -21 9 -50 16 -67 16 -16 0 -42 7 -57 15 -16 8 -36 15 -44
15 -9 0 -26 7 -38 16 -20 14 -22 23 -22 123 0 93 3 110 19 125 18 16 22 16 80
-4 193 -65 347 -84 489 -62 63 10 74 16 125 61 23 21 27 33 27 75 -1 44 -5 54
-28 71 -25 18 -48 20 -257 25 -227 6 -231 6 -284 34 -68 35 -156 118 -183 171
-37 74 -49 156 -34 233 20 100 40 139 107 204 72 69 113 91 217 113 42 10 86
21 97 26 26 11 361 4 445 -9z m2305 8 c3 -5 32 -10 63 -11 76 0 171 -21 182
-39 12 -19 13 -261 1 -279 -12 -18 -59 -8 -186 40 -53 19 -170 31 -285 27
-139 -4 -198 -22 -245 -75 -21 -23 -25 -35 -21 -67 6 -48 35 -90 66 -94 13 -2
34 -11 47 -19 18 -12 39 -14 100 -8 116 11 291 10 353 -1 124 -22 203 -96 235
-218 19 -73 19 -113 -1 -190 -42 -163 -148 -261 -348 -320 -48 -15 -97 -18
-253 -18 -132 0 -198 4 -208 12 -8 6 -38 15 -67 20 -96 15 -172 38 -185 56 -9
12 -13 52 -13 119 0 89 3 104 20 120 23 21 37 19 175 -25 169 -55 414 -68 465
-26 8 7 29 18 46 25 21 8 37 25 49 50 16 36 16 39 -6 77 -37 65 -33 64 -258
64 -113 0 -225 5 -248 10 -93 22 -230 135 -254 210 -18 58 -23 205 -9 272 26
120 171 241 325 269 33 6 67 15 75 19 22 13 377 12 385 0z m-6473 -28 c9 -9
12 -35 10 -80 -1 -37 -4 -253 -7 -480 -6 -430 -4 -453 34 -436 9 4 52 11 96
16 44 4 109 12 145 18 36 5 112 13 170 16 84 5 108 3 117 -7 7 -9 13 -61 14
-128 2 -113 2 -114 -25 -138 l-27 -23 -398 0 c-370 0 -399 1 -414 18 -14 16
-17 70 -21 452 -3 239 -8 508 -11 596 -8 209 -18 197 166 192 96 -2 142 -7
151 -16z m1509 8 c17 -10 38 -49 95 -177 8 -17 14 -35 14 -40 0 -5 18 -49 40
-98 22 -50 40 -96 40 -103 0 -8 13 -42 29 -77 17 -35 37 -85 46 -112 16 -47
29 -80 66 -159 10 -22 19 -46 19 -53 0 -7 6 -27 14 -44 50 -110 66 -149 66
-158 0 -10 33 -90 50 -121 6 -10 10 -33 10 -51 0 -51 -23 -58 -170 -55 l-125
3 -37 55 c-20 30 -41 73 -47 96 -6 23 -17 46 -25 53 -9 8 -96 11 -306 9 l-292
-3 -18 -35 c-11 -19 -31 -60 -45 -90 -41 -86 -49 -90 -180 -90 -97 0 -116 3
-136 19 l-24 20 23 43 c12 24 22 47 22 51 0 5 18 45 39 90 21 45 52 114 67
152 16 39 31 72 34 75 3 3 20 43 39 90 19 47 49 117 68 156 18 39 33 75 33 81
0 6 18 45 40 87 22 43 42 93 46 112 3 19 10 37 15 40 12 7 12 39 0 62 -5 9
-20 47 -34 84 -37 101 -45 98 256 98 154 0 256 -4 268 -10z m4020 0 c17 -10
19 -22 19 -125 0 -103 -2 -117 -21 -136 -14 -14 -26 -18 -37 -13 -16 8 -122
15 -435 30 -102 4 -141 3 -152 -6 -11 -9 -15 -36 -15 -106 0 -139 -10 -134
250 -134 247 0 230 10 230 -134 0 -87 -2 -96 -22 -110 -30 -21 -175 -22 -225
-1 -22 9 -68 15 -124 15 -77 0 -90 -2 -99 -19 -16 -32 -13 -226 5 -241 16 -13
158 -9 300 10 44 5 129 13 189 16 138 8 136 10 136 -137 0 -92 -3 -110 -21
-133 l-20 -26 -422 0 c-401 0 -423 1 -447 20 l-25 19 -7 518 c-3 285 -9 544
-13 576 -9 72 -1 105 28 117 32 13 903 13 928 0z m5717 -202 c14 -24 14 -30 2
-53 -31 -57 13 -55 -1180 -55 -953 0 -1102 2 -1133 15 -31 13 -143 15 -795 15
-749 0 -758 0 -780 20 -28 26 -28 35 3 65 l24 25 1921 -2 1921 -3 17 -27z
m-19 -359 c17 -17 31 -34 31 -39 0 -20 -34 -40 -69 -40 -21 0 -55 -7 -74 -15
-32 -13 -263 -15 -1871 -15 -1181 0 -1844 4 -1861 10 -29 11 -46 46 -36 73 4
10 20 27 36 37 29 20 62 20 1922 20 l1891 0 31 -31z m-11 -385 c24 -16 31 -75
12 -104 -8 -13 -230 -15 -1882 -18 -1722 -2 -1877 -1 -1928 14 -72 22 -87 36
-74 71 7 22 19 29 59 39 37 9 518 12 1920 13 1678 1 1873 -1 1893 -15z m249
-374 c40 -31 42 -64 6 -87 -26 -17 -133 -18 -2038 -21 -1366 -2 -2021 0 -2046
7 -20 6 -44 19 -53 30 -17 18 -17 21 1 48 10 15 25 34 33 40 12 10 457 12
2040 10 l2026 -2 31 -25z"/>
<path d="M17554 10236 c-10 -31 -21 -56 -26 -56 -4 0 -8 -7 -8 -15 0 -22 -61
-177 -103 -259 -20 -40 -26 -79 -16 -97 9 -17 24 -19 178 -19 157 0 169 1 186
21 16 17 17 25 8 47 -38 91 -93 238 -93 247 0 5 -7 24 -16 40 -9 17 -24 55
-33 85 -13 42 -22 56 -38 58 -18 3 -24 -6 -39 -52z"/>
<path d="M4672 11028 c-46 -23 -43 -134 6 -213 45 -74 132 -243 132 -257 0 -7
6 -24 13 -38 13 -24 27 -74 46 -162 6 -24 13 -54 16 -68 40 -163 35 -544 -9
-740 -30 -128 -82 -299 -95 -310 -3 -3 -19 -32 -35 -65 -16 -33 -45 -84 -65
-114 -35 -52 -36 -56 -36 -149 0 -93 1 -97 25 -109 20 -10 397 -12 1940 -8
1550 4 3906 6 5213 5 119 0 330 0 467 0 138 1 276 0 308 -1 31 0 116 3 187 8
114 7 138 12 196 39 36 17 81 46 99 64 38 37 120 145 120 158 0 10 78 162 91
178 5 7 16 48 24 93 8 44 18 89 24 99 5 10 13 54 17 98 4 43 13 91 20 106 20
39 20 492 0 545 -8 21 -17 73 -20 115 -11 143 -112 411 -197 519 -16 20 -29
41 -29 45 0 13 -103 103 -117 104 -7 0 -13 4 -13 10 0 35 21 35 -3790 42
-2043 4 -3753 8 -3800 9 -47 0 -105 -2 -128 -6 -28 -5 -48 -3 -55 4 -14 14
-74 15 -82 1 -9 -14 -81 -13 -105 2 -15 10 -26 10 -53 0 -40 -15 -253 -16
-262 -2 -8 12 -23 12 -53 -2z m7551 -307 c63 -10 84 -31 71 -68 l-9 -28 -3375
2 c-1856 1 -3421 4 -3477 8 -108 7 -130 17 -118 55 4 12 16 25 28 30 27 11
6814 12 6880 1z m65 -383 c16 -16 15 -55 0 -65 -49 -31 -120 -32 -3439 -32
-1824 -1 -3331 2 -3349 5 -42 9 -61 46 -36 73 10 11 30 22 45 24 14 2 1543 5
3397 6 2609 1 3373 -2 3382 -11z m-4 -390 c21 -30 20 -44 -4 -68 -20 -20 -33
-20 -3419 -20 -3077 0 -3401 1 -3415 16 -21 20 -20 53 1 76 16 17 135 18 3419
18 l3403 0 15 -22z m-4 -378 c21 -21 26 -55 10 -80 -8 -13 -393 -15 -3367 -14
-1847 0 -3379 2 -3405 3 -41 2 -50 6 -62 29 -13 24 -12 30 6 54 l19 28 3390 0
c3376 0 3389 0 3409 -20z m-56 -354 c38 -8 73 -21 77 -28 13 -20 11 -44 -5
-57 -10 -8 -930 -10 -3497 -9 l-3484 3 -3 27 c-2 18 4 31 20 42 20 14 159 16
1443 17 781 0 1429 4 1440 9 11 5 902 9 1980 9 1673 1 1970 -1 2029 -13z"/>
</g>
</svg>
